<?xml version="1.0" encoding="UTF-8" standalone="no"?>
<svg
   height="48"
   width="48"
   version="1.1"
   id="svg4"
   inkscape:version="1.1.2 (0a00cf5339, 2022-02-04)"
   inkscape:export-xdpi="96"
   inkscape:export-ydpi="96"
   xmlns:inkscape="http://www.inkscape.org/namespaces/inkscape"
   xmlns:sodipodi="http://sodipodi.sourceforge.net/DTD/sodipodi-0.dtd"
   xmlns="http://www.w3.org/2000/svg"
   xmlns:svg="http://www.w3.org/2000/svg">
  <defs
     id="defs8" />
  <sodipodi:namedview
     id="namedview6"
     pagecolor="#000000"
     bordercolor="#666666"
     borderopacity="1.0"
     inkscape:pageshadow="2"
     inkscape:pageopacity="0"
     inkscape:pagecheckerboard="true"
     showgrid="false"
     inkscape:zoom="13.416667"
     inkscape:cx="29.664596"
     inkscape:cy="26.086956"
     inkscape:window-width="1920"
     inkscape:window-height="1021"
     inkscape:window-x="0"
     inkscape:window-y="0"
     inkscape:window-maximized="1"
     inkscape:current-layer="svg4" />
  <g
     inkscape:groupmode="layer"
     id="layer1"
     inkscape:label="Layer 1">
    <path
       id="path1182-3"
       style="fill:#ffffff;stroke:none;stroke-width:0.899004"
       d="M 24 0 A 24 24 0 0 0 0 24 A 24 24 0 0 0 24 48 A 24 24 0 0 0 48 24 A 24 24 0 0 0 24 0 z M 24 4 A 20 20 0 0 1 44 24 A 20 20 0 0 1 24 44 A 20 20 0 0 1 4 24 A 20 20 0 0 1 24 4 z " />
  </g>
  <path
     style="display:inline;fill:#ffffff;stroke:none;stroke-width:0.0427323"
     d="m 13.593677,40.408737 c -0.845096,-0.276303 -1.448243,-1.049498 -1.512955,-1.93951 -0.02724,-0.374688 0.125587,-1.134172 1.141348,-5.671887 0.645042,-2.881597 1.172802,-5.275543 1.172802,-5.319882 0,-0.04434 -1.801977,-1.727086 -4.004396,-3.739439 -3.257626,-2.9765 -4.0317448,-3.717896 -4.1510431,-3.975578 -0.5404004,-1.167253 -0.1384576,-2.456413 0.9278808,-2.976012 0.4337486,-0.211355 2.9e-5,-0.160422 5.9407183,-0.697654 2.707801,-0.244874 4.950662,-0.476 4.984135,-0.513614 0.03348,-0.03761 0.88592,-2.134819 1.894324,-4.660455 2.231903,-5.590001 2.205819,-5.5301727 2.553594,-5.8569848 1.0081,-0.9473293 2.760053,-0.6441439 3.344164,0.5787261 0.08602,0.1800881 1.0141,2.4745835 2.062397,5.0988787 1.048299,2.624296 1.931736,4.801038 1.963193,4.837205 0.03146,0.03617 2.289241,0.267566 5.017296,0.514218 2.728056,0.246653 5.096553,0.467422 5.263327,0.490601 1.459563,0.202848 2.230456,1.766035 1.572153,3.187953 -0.121047,0.261455 -0.876385,0.98501 -4.151044,3.976367 -2.20169,2.011215 -4.003072,3.692227 -4.003072,3.735584 0,0.04336 0.527919,2.436948 1.173153,5.319092 1.017623,4.54554 1.168936,5.297617 1.141348,5.672881 -0.101255,1.377325 -1.49893,2.363057 -2.726222,1.922716 -0.207576,-0.07448 -2.346338,-1.385589 -4.752804,-2.913585 -2.406467,-1.527995 -4.404049,-2.778173 -4.439072,-2.778173 -0.03503,0 -2.034053,1.25008 -4.442288,2.777958 -2.408236,1.527877 -4.533006,2.834486 -4.721711,2.903576 -0.403643,0.147784 -0.848385,0.157418 -1.247226,0.02702 z"
     id="path899" />
</svg>
